<?xml version="1.0" encoding="utf-8"?>
<!-- Generator: Adobe Illustrator 28.2.0, SVG Export Plug-In . SVG Version: 6.00 Build 0)  -->
<svg version="1.1" id="Layer_1" xmlns="http://www.w3.org/2000/svg" xmlns:xlink="http://www.w3.org/1999/xlink" x="0px" y="0px"
	 viewBox="0 0 532.3 531.3" style="enable-background:new 0 0 532.3 531.3;" xml:space="preserve">
<style type="text/css">
	.st0{fill:#212129;}
	.st1{fill:#FFC107;}
	.st2{fill:#808080;}
	.st3{fill:#D47A5B;}
	.st4{display:none;fill:#0D4F99;}
	.st5{display:none;fill:#007200;}
	.st6{fill:#0D4F99;}
</style>
<g>
	<path class="st0" d="M113.9,90.3c-0.4,0.7-0.8,1.4-1.3,2.2c-0.1,0.2-0.2,0.4-0.4,0.6c1.2-0.3,2.4-0.4,3.6-0.5
		c4.2-0.2,8.2,1,12.2,2.3c1,0.3,2,0.6,3,1l-0.1,0.1c1.1,0.3,2.3,0.7,3.6,1h0.1l0.7,0.2h0.1c1.7,0.4,3.4,0.8,5.1,1.2
		c5,1.1,10.2,2.3,16.2,4.7h0.1h0.1c0.4,0.2,0.8,0.3,1.3,0.5c0.9,0.3,1.8,0.6,2.7,1c1.2,0.5,2.2,1.2,3.1,1.9c0.4,0.4,0.9,0.8,1.2,1.2
		c0.6,0.7,1,1.5,1.3,2.2c0.6,1.6,0.5,3.5-0.2,5.1l74.2-0.1l0,0h29.4l0,0l91.5-0.1l25.3-23.3c6.1-5.6,10.6-7.6,18.5-8.2
		c2-0.2,3.9-1,5.3-2.3l0.2-0.2c-0.2-0.3-0.3-0.6-0.5-1c-0.2-0.5-0.4-1-0.7-1.5c-0.6-1.3-0.3-2.9,0.8-3.9l17.6-16.2
		C383.1,23,326.6,2,265.2,2C200.3,2.1,140.9,25.7,95.1,64.7l18.5,21.5C114.5,87.5,114.6,89,113.9,90.3z"/>
	<path class="st0" d="M89.9,416.9c0.7,0.4,1.4,0.9,2.2,1.3c0.2,0.1,0.4,0.2,0.6,0.4c-0.2-1.2-0.4-2.4-0.4-3.6
		c-0.1-4.2,1.1-8.1,2.5-12.1c0.1-0.2,0.2-0.5,0.2-0.7l0.2-0.2c0.3-1,0.6-2,0.9-2.9c0.2-0.5,0.3-1,0.4-1.5l0,0c0-0.1,0.1-0.2,0.1-0.4
		l0.1-0.2c0.1-0.4,0.2-0.8,0.3-1.3c0.4-1.8,0.9-3.5,1.3-5.2c1.2-5,2.4-10.1,4.8-16.1c0,0,0-0.1,0.1-0.1v-0.1
		c0.2-0.4,0.3-0.8,0.5-1.3c0.3-0.9,0.7-1.7,1.1-2.6c0.5-1.2,1.2-2.2,1.9-3.1c0.4-0.5,0.8-0.9,1.2-1.2c0.7-0.6,1.5-1,2.3-1.3
		c1.7-0.6,3.7-0.5,5.4,0.4l-0.1-77.7l0,0l-0.1-69.7l0,0l-0.1-51.7l-10-11.7l-11.1-13c-5.4-6.3-7.2-10.8-7.6-18.8
		c-0.1-2-0.8-3.9-2.1-5.3l-0.2-0.2c-0.3,0.1-0.7,0.3-1,0.4c-0.5,0.2-1,0.4-1.5,0.6c-1.3,0.5-2.9,0.2-3.8-0.9L62.2,98.6
		c-17.6,21.5-31.9,45.9-42.1,72.3c-0.3,0.8-0.6,1.6-0.9,2.4c-0.5,1.2-0.9,2.5-1.4,3.7c-3.6,10-6.5,20.3-8.9,30.8
		c-0.3,1.2-0.5,2.5-0.8,3.7c-0.1,0.5-0.2,1-0.3,1.5c-3.4,16.9-5.2,34.3-5.2,52.2c0,23.7,3.2,46.6,9.1,68.5c0.2,0.8,0.4,1.6,0.7,2.4
		c0.3,1.2,0.7,2.5,1.1,3.7c3.1,10.6,6.9,20.8,11.3,30.8c0.5,1.2,1.1,2.5,1.7,3.7c0.2,0.5,0.5,1,0.7,1.5c10,21.4,22.8,41.3,37.9,59.1
		l21-17.7C87.1,416.3,88.7,416.2,89.9,416.9z"/>
	<path class="st0" d="M502.8,151.9c-10.7-22.4-24.4-43-40.7-61.3l-20,18.4c-1.1,1-2.6,1.2-3.9,0.5c-0.7-0.4-1.5-0.8-2.2-1.2
		c-0.2-0.1-0.4-0.2-0.6-0.3c0.3,1.2,0.5,2.4,0.6,3.5c0.3,4.2-0.7,8.2-1.9,12.2c-0.1,0.3-0.2,0.7-0.3,1l-0.2,0.2
		c-0.2,0.8-0.4,1.7-0.7,2.5c-0.3,1.1-0.5,2.3-0.8,3.5c0,0.1,0,0.1,0,0.2c-0.4,1.7-0.7,3.4-1,5.1c-0.9,5-1.9,10.3-4.1,16.4
		c0,0.1-0.1,0.2-0.1,0.3c0,0,0,0,0,0.1c-0.1,0.4-0.3,0.8-0.4,1.2c-0.3,0.9-0.6,1.9-1,2.8c-0.5,1.2-1,2.1-1.7,3
		c-0.4,0.5-0.7,0.9-1.1,1.3c-0.7,0.6-1.4,1.1-2.2,1.4c-1.6,0.7-3.5,0.6-5.2,0l0.1,72.6l0,0v32.9l0,0l0.1,91.3l22.6,38.9
		c4.1,7.1,5.1,11.9,4,19.8c-0.3,2,0.1,4,1.1,5.6l0.2,0.3c0.3-0.1,0.7-0.2,1.1-0.2c0.5-0.1,1.1-0.2,1.6-0.3c1.4-0.3,2.9,0.4,3.6,1.6
		l9.9,17.1c22.6-24.7,40.5-53.7,52.4-85.6c0.3-0.8,0.6-1.6,0.9-2.4c0.4-1.2,0.9-2.5,1.3-3.7c3.4-10,6.3-20.3,8.5-30.8
		c0.3-1.2,0.5-2.5,0.8-3.7c0.1-0.5,0.2-1,0.3-1.5c3.1-16.1,4.7-32.7,4.7-49.7c0-24.5-3.4-48.2-9.7-70.6c-0.2-0.8-0.4-1.6-0.7-2.4
		c-0.4-1.2-0.7-2.5-1.1-3.7c-3.2-10.6-7.1-20.9-11.6-30.8c-0.6-1.2-1.1-2.5-1.7-3.7C503.2,152.9,503,152.4,502.8,151.9z"/>
	<path class="st0" d="M409.3,444.9c0.6-0.6,1.1-1.3,1.7-1.9c0.2-0.2,0.3-0.3,0.5-0.5c-1.2,0-2.4,0-3.6-0.2
		c-4.2-0.6-7.8-2.5-11.5-4.5c-0.1,0-0.1-0.1-0.2-0.1l-0.2-0.3c-1-0.5-2-1.1-3-1.6c-0.5-0.3-1-0.5-1.6-0.8c0,0-0.1,0-0.1-0.1
		c-0.6-0.3-1.1-0.5-1.6-0.8c-1.7-0.8-3.3-1.5-4.9-2.1c-4.7-2-9.6-4.1-15.1-7.5c-0.1-0.1-0.2-0.1-0.3-0.2c0,0,0,0-0.1,0
		c-0.3-0.2-0.7-0.4-1.1-0.6c-0.8-0.5-1.7-1-2.6-1.6c-1-0.7-1.9-1.5-2.6-2.3c-0.4-0.4-0.7-0.9-1-1.4c-0.4-0.8-0.8-1.6-0.9-2.4
		c-0.1-0.4-0.1-0.7-0.1-1.1l0,0h-44.2h-0.1h-30.6h-43.3l0,0l-76,0.1l0,0l-13.3,11.2l-13.1,11c-6.3,5.3-10.9,7.1-18.8,7.4
		c-2,0.1-3.9,0.8-5.4,2l-0.2,0.2c0.2,0.3,0.3,0.7,0.4,1c0.2,0.5,0.4,1,0.6,1.5c0.5,1.3,0.1,2.9-1,3.8l-17.7,14.8
		c45.4,37.4,103.7,59.8,167.1,59.7c59.5-0.1,114.3-19.8,158.3-53.2l-15-25.8C408.2,447.5,408.4,445.9,409.3,444.9z"/>
	<path class="st1" d="M162.5,114.7c0.8-1,1.2-2.4,0.8-3.6c-0.3-0.8-0.8-1.4-1.5-1.9c-0.7-0.6-1.5-1-2.4-1.4c-1.2-0.5-2.5-1-3.8-1.4
		c-0.1,0-0.2-0.1-0.3-0.1c-7.8-3.1-13.9-4-20.9-5.8l0,0c-0.3-0.1-0.5-0.1-0.8-0.2c-2.1-0.5-4.4-1.2-6.7-2c-3.5-1.2-7.2-2.3-10.9-2.2
		c-1.1,0-2.1,0.2-3.2,0.4c-0.9,0.2-1.9,0.1-2.7-0.4c-3,4.1-6.5,7.8-10.3,11s-7.9,5.9-12.2,8.1c1.5,2,2.4,4.4,2.5,7
		c0.3,7.4,2,11.1,6.7,16.6c3.2,3.7,6.1,7.1,8.8,10.3l9.7,11.2l3.6,4.1l11.6,13.5c2.2,2.6,4.7,3.3,7.5,1.1l0.1-0.1
		c1.5-1.3,1.9-3.7,0.9-5.5l-0.1-0.1l-0.1-0.1c-0.2-0.3-0.5-0.6-0.8-1c-0.2-0.2-0.3-0.4-0.5-0.5c-3.8-4.4-2.9-3.4-6.7-7.8l-5.4-6.3
		c-0.3-0.4-0.5-0.7-0.7-1c-0.8-1.4,0.4-3,2-2.3c0.7,0.3,1.1,0.8,1.6,1.4c4.6,5.3,4.4,5.2,9,10.5l7,8.2c1.4,1.7,3.2,4.8,5.4,5.5
		c3.2,0.9,7.1-1.6,6.3-5.2c-0.4-1.9-1.7-3.4-3-4.9c-4.9-5.5-4.9-5.5-9.7-11.1c-2.4-2.8-4.8-5.6-7.1-8.4c-0.8-0.9-3.6-5.8,0.1-4.8
		c0.6,0.2,1.1,0.5,1.6,1L158,170c2.1,2.4,4.8,7,8.3,6.8c3.1-0.2,5.3-3.3,4.2-6.2c-0.5-1.5-1.5-2.6-2.5-3.8
		c-5.9-6.9-11.8-13.8-17.8-20.6c-3-3.5-1.6-1.4-4.4-5.1c-1-1.3-2.3-6,1.2-4.6c0.5,0.2,0.9,0.5,1.2,0.9c7.2,8.4,9.8,11.4,17,19.8
		c0.1,0.1,0.2,0.2,0.2,0.3c0.3,0.3,0.5,0.6,0.8,0.8c3.6,2.6,9.5-1.7,7.1-6.2c-0.2-0.3-0.4-0.7-0.7-0.9c-4.2-4.8-8.3-9.7-12.5-14.4
		c-4.6-5.2-4.5-5.1-8.9-10.4c-2-2.3-3.9-4.6-6-6.9c-0.3-0.4-0.7-0.8-1-1.2s-0.7-0.7-1-1.1c-0.1-0.1-0.2-0.2-0.3-0.4
		c-0.3-0.4-0.6-0.8-0.7-1.4c0-0.2,0-0.5,0.1-0.7l0,0c0.1-0.2,0.2-0.5,0.4-0.6l0.1-0.1c0.1,0,0.1-0.1,0.2-0.1s0.1-0.1,0.2-0.1
		s0.2-0.1,0.3-0.1s0.3,0,0.4-0.1c0.1,0,0.2,0,0.2,0c0.1,0,0.2,0,0.2,0c0.2,0,0.4,0,0.6,0c0.1,0,0.3,0,0.4,0l0,0
		c0.2,0,0.5,0.1,0.7,0.1c0.1,0,0.2,0,0.2,0c0.9,0.2,1.7,0.4,2.2,0.5c0.3,0.1,0.7,0.1,1,0.2c0.2,0,0.5,0.1,0.8,0.2h11.9
		C162.3,114.9,162.4,114.8,162.5,114.7z"/>
	<path class="st1" d="M415.6,158.9c1,0.8,2.5,1.1,3.7,0.6c0.8-0.3,1.4-0.9,1.9-1.6c0.5-0.7,0.9-1.5,1.3-2.3c0.5-1.2,0.9-2.5,1.3-3.8
		c0.1-0.2,0.1-0.3,0.2-0.4c2.8-7.8,3.5-14,5-21v-0.1l0,0c0.1-0.4,0.2-0.8,0.3-1.2l0,0c0.2-0.8,0.4-1.6,0.6-2.5
		c0.3-1.3,0.7-2.6,1.1-3.9c1.1-3.6,2.1-7.2,1.8-11c-0.1-1.1-0.3-2.1-0.6-3.1c-0.2-0.9-0.1-1.9,0.3-2.7c-4.2-2.8-8-6.2-11.4-9.9
		c-3.3-3.7-6.2-7.7-8.6-12c-1.9,1.6-4.3,2.5-6.9,2.8c-7.4,0.6-11,2.4-16.4,7.3l-22.5,20.7l-3.8,3.5L351.3,129
		c-2.5,2.3-3.2,4.8-0.8,7.5l0.1,0.1c1.4,1.5,3.8,1.8,5.5,0.7l0.1-0.1l0.1-0.1c0.3-0.2,0.6-0.5,0.9-0.8c0.2-0.2,0.3-0.3,0.5-0.5
		c4.3-4,3.3-3,7.6-7l6.1-5.6c0.3-0.3,0.6-0.5,1-0.7c1.4-0.8,3,0.3,2.4,1.9c-0.2,0.7-0.8,1.2-1.3,1.6c-5.2,4.8-5,4.6-10.2,9.4l-8,7.3
		c-1.6,1.5-4.7,3.3-5.3,5.6c-0.8,3.2,1.8,7,5.5,6.1c1.9-0.5,3.4-1.8,4.8-3.2c5.3-5,5.3-5.1,10.7-10.1c2.7-2.5,5.4-5,8.1-7.4
		c0.9-0.8,5.7-3.8,4.8,0c-0.2,0.6-0.5,1.2-1,1.6l-22.8,20.9c-2.3,2.2-6.8,5.1-6.5,8.5c0.3,3.1,3.5,5.1,6.4,4
		c1.4-0.6,2.6-1.6,3.7-2.7c6.7-6.2,13.3-12.3,20-18.5c3.4-3.1,1.3-1.6,4.9-4.6c1.3-1.1,5.9-2.5,4.7,1.1c-0.2,0.5-0.5,0.9-0.9,1.3
		l-19.5,18c-0.3,0.3-0.6,0.5-0.8,0.8c-2.4,3.7,2,9.5,6.4,6.9c0.3-0.2,0.6-0.4,0.9-0.7c4.7-4.3,9.3-8.6,14-13c5.1-4.8,5-4.7,10-9.3
		c2.2-2,4.4-4,6.5-6.1c0.7-0.6,1.3-1.2,1.9-1.9c0.1-0.1,0.3-0.2,0.4-0.4c0.1-0.1,0.2-0.2,0.2-0.2c0.4-0.4,0.9-0.8,1.5-0.9
		c0.2,0,0.5,0,0.7,0c0.3,0.1,0.6,0.3,0.7,0.5l0,0l0.1,0.1c0,0,0,0.1,0.1,0.1c0,0,0,0.1,0.1,0.2v0.1v0.1v0.1c0,0.1,0,0.1,0,0.2
		s0,0.1,0,0.2s0,0.1,0,0.2c0,0.3,0,0.6,0,0.9c0,0.4-0.1,0.7-0.1,1.1v0.1c0,0.1,0,0.2-0.1,0.3c-0.1,0.4-0.1,0.7-0.2,1v14.6
		C415.4,158.8,415.5,158.9,415.6,158.9z"/>
	<path class="st1" d="M365.1,414.9h-0.5l0,0c0,0.2,0,0.4,0,0.5c0.1,0.8,0.6,1.5,1.1,2.2c0.6,0.7,1.2,1.2,1.9,1.7
		c1.1,0.8,2.3,1.4,3.4,2.1c0.1,0.1,0.3,0.2,0.4,0.2c7.1,4.4,12.9,6.5,19.6,9.5l0,0l0,0c0.3,0.1,0.6,0.3,0.9,0.4l0,0
		c0.3,0.1,0.6,0.3,0.9,0.4l0,0c0.5,0.2,1.1,0.5,1.6,0.8c1.2,0.6,2.4,1.2,3.6,1.9c3.3,1.8,6.6,3.6,10.3,4.1c1.1,0.2,2.1,0.2,3.2,0.2
		c0.2,0,0.4,0,0.6,0c0.1,0,0.2,0,0.2,0c0.1,0,0.3,0,0.4,0.1c0.1,0,0.2,0,0.3,0.1c0.1,0,0.2,0.1,0.4,0.2c0.1,0,0.2,0.1,0.2,0.1
		c0.2,0.1,0.4,0.2,0.5,0.4c3.7-3.4,7.8-6.5,12.1-9c4.3-2.4,8.8-4.4,13.5-5.8l0,0c-0.2-0.4-0.4-0.9-0.6-1.3c-0.1-0.2-0.2-0.5-0.2-0.7
		l0,0c-0.1-0.2-0.1-0.5-0.2-0.7c0,0,0,0,0-0.1c-0.1-0.2-0.1-0.4-0.1-0.6s-0.1-0.4-0.1-0.6c0-0.1,0-0.2,0-0.3c0-0.2,0-0.3,0-0.5
		c0-0.1,0-0.1,0-0.2c0-0.2,0-0.4,0-0.6c0-0.6,0-1.2,0.1-1.8c1-7.3,0.1-11.3-3.6-17.6l-19.5-33.6l-3.6-6.1l-2.8-4.9
		c-1.7-2.9-4-4.1-7.2-2.4h-0.1c-1.7,1-2.6,3.3-1.9,5.2c0,0.1,0.1,0.1,0.1,0.2l0.1,0.1c0.2,0.4,0.4,0.7,0.6,1.1
		c0.1,0.2,0.3,0.4,0.4,0.6c2.9,5,2.2,3.8,5.2,8.9l4.2,7.2c0.2,0.4,0.4,0.8,0.5,1.1c0.5,1.5-1,2.8-2.4,1.9c-0.6-0.4-1-1-1.3-1.6
		c-3.5-6.1-3.4-5.9-6.9-12l-5.4-9.4c-1.1-1.9-2.2-5.3-4.4-6.4c-3-1.5-7.2,0.2-7.2,4c0,1.9,1.1,3.7,2.1,5.3c3.8,6.3,3.9,6.3,7.5,12.7
		c1.8,3.2,3.7,6.3,5.5,9.5c0.6,1,2.5,6.4-1,4.7c-0.6-0.3-1-0.7-1.3-1.3L380.7,358c-1.6-2.8-3.5-7.8-6.9-8.2
		c-3.1-0.4-5.8,2.3-5.3,5.3c0.2,1.5,1,2.9,1.8,4.2c4.6,7.8,9.1,15.7,13.7,23.5c2.3,4,1.3,1.7,3.4,5.8c0.8,1.5,1.2,6.3-2,4.3
		c-0.4-0.3-0.8-0.7-1-1.1c-5.6-9.6-7.5-13-13.1-22.6c-0.1-0.1-0.1-0.2-0.2-0.3c-0.2-0.4-0.4-0.7-0.6-1c-3.1-3.2-9.7-0.1-8.1,4.8
		c0.1,0.4,0.3,0.7,0.5,1c3.2,5.5,6.4,11,9.6,16.5c3.6,6,3.5,5.9,6.9,11.8c1.5,2.6,3,5.1,4.5,7.7c0.3,0.5,0.5,0.9,0.8,1.3
		c0.3,0.5,0.6,1,0.9,1.4c0.1,0.1,0.1,0.2,0.2,0.3c0.3,0.5,0.6,1,0.6,1.7c0,0.1,0,0.1,0,0.2c0,0.2-0.1,0.3-0.2,0.5
		c-0.2,0.3-0.4,0.5-0.7,0.6c-0.1,0-0.1,0-0.2,0h-0.1c-0.1,0-0.1,0-0.2,0h-0.1c-0.1,0-0.1,0-0.1,0h-0.1c-0.1,0-0.1,0-0.2,0
		s-0.1,0-0.2,0s-0.1,0-0.2,0s-0.2,0-0.3,0l0,0l0,0l0,0c-0.5-0.1-1.1-0.3-1.6-0.5c-0.1-0.1-0.3-0.1-0.4-0.2c-0.4-0.2-0.8-0.3-1.1-0.5
		L365.1,414.9L365.1,414.9z"/>
	<path class="st2" d="M228.4,245.8c-3.2,3.8-5.4,9-6.1,14.6h8.8h29.6v-5.7v-1.1h-31.9c0.8-1.8,1.8-3.5,3-4.9c0.3-0.4,0.7-0.8,1-1.1
		h27.9v-5.9v-4h-17.6c2.6-2.2,5.2-4.2,7.9-6h9.7v-3.2v-8.2C249,227,238.5,234.3,228.4,245.8z"/>
	<path class="st2" d="M118.8,260.5h44.9c-1-2.8-1.5-5.8-1.5-8.9c0-7.3,2.8-14.2,8-19.4s12.1-8,19.4-8.1c7.3,0,14.2,2.8,19.4,8
		c2.5,2.5,4.4,5.3,5.8,8.4c0.9-1.3,1.8-2.6,2.9-3.8c0,0,0-0.1,0.1-0.1c15.5-17.7,32.2-26.7,49.8-36.2c3.8-2,7.7-4.1,11.6-6.3
		c0.1,0,0.2-0.1,0.3-0.1c6.2-3.1,11.5-7.1,15.8-11.9c-0.9-2-2.1-3.8-3.6-5.3c-0.9-0.9-1.9-1.8-3-2.5h-20.1c-0.2,0.2-0.5,0.3-0.7,0.5
		c-0.8,0.6-1.8,0.9-2.7,0.9c-0.7,0-1.4-0.2-2.1-0.5c-0.5-0.2-0.9-0.5-1.2-0.9H235c-1.3-1.9-2.5-3.9-3.6-6h29.2v-1.4v-8.4h-32.8
		c-0.7-2.8-1-4.9-1.2-6h34v-33.8L149,118.8l0,0c1.3,1.5,2.6,3,4.1,4.7l0.9,1.1l1.7,2c0.9,1,1.5,1.8,2.2,2.5c1.3,1.5,2.3,2.7,5.1,5.8
		c2.9,3.3,5.8,6.7,8.7,10c1.3,1.5,2.6,3,3.8,4.4l0,0c0.4,0.5,0.8,1,1.1,1.6c1.8,3.4,1.1,7.3-1.9,9.9c-1.6,1.5-3.7,2.2-5.6,2.3l1.7,2
		c1.2,1.3,2.3,2.8,3,4.7c0.9,2.4,0.5,5-0.9,7.2s-3.9,3.6-6.4,3.7c-2.9,0.2-5.3-1.4-7-3.1c-0.3,1.5-1.1,2.8-2.3,3.9
		c-2.2,2.1-5.5,2.9-8.4,2.1c-2.2-0.6-3.7-2.1-4.6-3.3c-0.6-0.7-1.1-1.3-1.5-1.9c-0.4,1.3-1.2,2.5-2.3,3.5l-0.1,0.1
		c-4.1,3.3-8.8,2.8-12.4-1.5l-8.9-10.3L118.8,260.5z M286.6,184c-2.8,2.2-5.8,4.2-9.1,5.9c-0.1,0.1-0.2,0.1-0.3,0.2h-23.6
		c-0.1-0.1-0.2-0.1-0.3-0.2c-3.3-1.7-6.4-3.6-9.1-5.9H286.6z M251.3,193.9c0.1,0,0.2,0.1,0.3,0.1c3.1,1.7,6.2,3.4,9.2,5
		c-4.8,2.6-9.6,5.3-14.2,8.1c-0.6-0.3-1.1-0.6-1.7-0.9c-34.9-17.8-36.6-52.5-36.7-54c-0.2-3.8,2.8-7.1,6.7-7.2s7.1,2.8,7.2,6.7
		c0,0.2,0.4,7.3,4.3,16.1C231.4,179.3,239.8,188.1,251.3,193.9z"/>
	<path class="st2" d="M241.6,296.9c6.9,4.7,13.3,8.8,19.2,12.5v-8.2h-4.5c-3-1.9-6-3.9-9.2-6h13.7v-9.8H235c-1.8-2-3.2-4.1-4.4-6
		h30.1v-3.6v-6.1h-29.1h-9.2C223.7,277.1,228,287.7,241.6,296.9z"/>
	<path class="st3" d="M260.8,314.7v-4.9c-2,1.2-4,2.4-5.9,3.6C256.9,313.7,258.8,314.1,260.8,314.7z"/>
	<path class="st2" d="M260.9,411.5v-30.8H227c0.2-0.8,0.3-1.6,0.3-2.5c0-1.2,0.1-2.4,0.1-3.6h33.5v-8.3c-2.8,1-5.8,1.5-8.9,1.5
		c-4.5,0-8.8-1.1-12.5-3h-10.7c0.6-2,1.6-4,2.9-6c-0.2-0.2-0.3-0.4-0.5-0.5c-0.9-1-1.7-2.1-2.4-3.2c-5.8,7.8-6,15.5-6.1,23
		c-0.1,3.8-3.2,6.9-7,6.9h-0.1c-3.9-0.1-6.9-3.2-6.9-7.1c0.2-10,0.4-25,15.9-38.8c0.1-2,0.4-3.9,0.9-5.8l0,0
		c2.4-8.7,9-15.6,17.5-18.5c-3-2-6.2-4-9.4-6.3c-18.3-12.4-23.8-27.4-25.2-37.7c-0.1-0.4-0.1-0.8-0.1-1.1h-0.2
		c-1.2,0-2.4-0.5-3.3-1.4c-0.1-0.1-0.1-0.2-0.2-0.2l0,0c-0.1-0.1-0.1-0.2-0.2-0.2c-0.2-0.2-0.3-0.4-0.4-0.7c0,0-0.1-0.1-0.1-0.2
		c-0.7-1.5-0.5-3.3,0.5-4.7c2.3-3.1,3.5-6.8,3.5-10.8c0-10-8.2-18.2-18.2-18.2c-10.1,0-18.2,8.2-18.2,18.2c0,3.9,1.2,7.6,3.5,10.8
		c1,1.4,1.2,3.3,0.4,4.8c0,0.1-0.1,0.2-0.2,0.3l-0.1,0.1c-0.1,0.1-0.2,0.3-0.3,0.4s-0.1,0.2-0.2,0.3l0,0c0,0-0.1,0-0.1,0.1
		c-0.9,0.9-2,1.4-3.3,1.4h-52.5l0.1,112c1.4-1.2,2.8-2.4,4.3-3.7l1.1-0.9l2-1.7c1.1-0.9,1.8-1.5,2.5-2.1c1.5-1.3,2.7-2.3,5.9-5
		c3.3-2.9,6.8-5.8,10.1-8.5c1.5-1.3,3-2.5,4.5-3.8l0,0c0.5-0.4,1-0.8,1.6-1.1c3.4-1.8,7.3-1,9.9,2c1.4,1.7,2.2,3.7,2.2,5.7l2-1.7
		c1.3-1.1,2.8-2.3,4.8-3c2.4-0.8,5.1-0.5,7.2,1c2.2,1.5,3.5,3.9,3.7,6.5c0.1,2.9-1.4,5.2-3.2,7c1.4,0.3,2.8,1.1,3.9,2.3
		c2,2.2,2.8,5.5,2,8.4c-0.6,2.2-2.2,3.7-3.3,4.6c-0.7,0.5-1.3,1.1-1.9,1.5c1.3,0.4,2.5,1.2,3.5,2.3c0,0,0.1,0.1,0.1,0.2
		c3.3,4.1,2.7,8.8-1.6,12.4l-8.9,7.5l0,0L260.9,411.5z"/>
	<path class="st2" d="M275,306.3c0.9-0.6,1.8-1.1,2.7-1.7c3.7-2.4,7.6-4.9,11.6-7.7c13.6-9.3,17.9-19.9,19.1-27.4h-7.2h-31.3v6.1
		v3.6h30.2c-1.1,2-2.6,4-4.4,6h-25.9v9.8h13.9c-3.2,2.1-6.3,4.2-9.2,6h-4.6v8.2c1.5-0.9,3-1.9,4.5-2.8
		C274.7,306.5,274.8,306.4,275,306.3z"/>
	<path class="st3" d="M237.4,329.6c3.4-2.3,7-4.5,10.9-6.9C243.8,323.6,240,326.1,237.4,329.6z"/>
	<path class="st2" d="M411.8,269.4h-45.2c1,2.8,1.5,5.8,1.5,8.9c0,15-12.2,27.3-27.2,27.3c-11.2,0-20.9-6.8-25.1-16.5
		c-3,5.1-7.4,10.4-13.5,15.5c-0.3,0.3-0.7,0.6-1.1,0.8c-0.1,0.1-0.2,0.2-0.3,0.3c-0.3,0.2-0.6,0.5-0.9,0.7c-0.1,0.1-0.2,0.1-0.3,0.2
		c-0.8,0.6-1.7,1.2-2.6,1.9c-13.1,8.9-24.2,15.6-33.9,21.5c-11.3,6.8-20.3,12.2-27.8,18.3c0.9,2,2.3,3.9,3.9,5.4
		c2.8,2.7,6.5,4.5,10.6,4.9c0.2,0,0.5,0,0.7,0.1h2.4c0.2,0,0.5,0,0.7-0.1c1.4-0.1,2.8-0.5,4.1-0.9c0.2-0.1,0.3-0.1,0.5-0.2
		s0.3-0.1,0.5-0.2s0.4-0.2,0.7-0.3c0.4-0.2,0.8-0.4,1.3-0.7c0.4-0.2,0.8-0.5,1.2-0.8c0.2-0.1,0.4-0.3,0.6-0.4s0.3-0.2,0.5-0.3
		c0.1,0,0.2-0.1,0.2-0.1c0.1,0,0.2-0.1,0.3-0.1c0.1,0,0.1,0,0.2-0.1c0.1,0,0.1,0,0.2-0.1c0.4-0.2,0.9-0.2,1.4-0.2c0.2,0,0.3,0,0.5,0
		h0.2c0,0,0.1,0,0.2,0s0.2,0,0.3,0.1c0.1,0,0.2,0,0.2,0.1h0.1c0.2,0.1,0.4,0.2,0.6,0.3c1.5,0.7,2.4,2.2,2.5,3.8v0.1h29.1
		c1.3,2,2.3,4,2.9,6h-32v9.8h33.4c0,1.2,0.1,2.3,0.1,3.6c0,0.8,0.1,1.7,0.3,2.5H270v30.8h46.7h0.1h48.3h0.1h15.1l0,0
		c0-0.1-0.1-0.2-0.1-0.2c-1.1-1.8-2.2-3.8-3.4-5.8l-0.7-1.2l-1.3-2.3c-0.7-1.2-1.2-2-1.7-2.9c-1-1.7-1.8-3.1-3.9-6.7
		c-2.3-3.8-4.5-7.7-6.7-11.4c-1-1.7-2-3.4-3-5.1l0,0c-0.3-0.6-0.6-1.2-0.8-1.7c-1.2-3.7,0.2-7.4,3.6-9.4c1.9-1.1,4-1.5,5.9-1.2
		l-1.3-2.3c-0.9-1.5-1.8-3.2-2.1-5.2c-0.4-2.5,0.4-5,2.2-6.9c1.8-1.9,4.4-2.8,7-2.5c2.9,0.4,4.9,2.3,6.3,4.3
		c0.6-1.4,1.6-2.5,2.9-3.4c2.5-1.6,5.9-1.8,8.7-0.5c2,1,3.2,2.8,4,4c0.4,0.7,0.8,1.5,1.1,2.2c0.7-1.2,1.7-2.3,2.9-3l0.2-0.1
		c4.5-2.5,8.9-1.2,11.7,3.3L411.8,269.4z M242,348.9c2.7-2,5.7-4,8.8-6H280c3.2,2,6.1,4,8.8,6H242z M315.2,384.9L315.2,384.9
		c-3.9,0-7-3-7.1-6.9c-0.2-9.7-0.3-19.7-12.6-29.8c-7-5.7-15.3-10.8-25.7-17.1c4.2-2.5,8.6-5.2,13.4-8.2c7.9,4.9,15,9.4,21.2,14.5
		c17.3,14.1,17.6,29.9,17.8,40.3C322.1,381.7,319,384.9,315.2,384.9z"/>
	<path class="st2" d="M270,220.1c2-1.1,4.1-2.2,6.2-3.4c-2.2-0.2-4.3-0.6-6.3-1.3v7.8v8.5h10c2.7,1.9,5.3,3.9,7.9,6h-17.9v4v5.9H298
		c0.3,0.4,0.7,0.8,1,1.1c1.2,1.4,2.2,3.1,3,4.9h-32.1v1.1v5.7h31.8h6.8c-0.7-5.5-2.8-10.7-6.1-14.5
		C292.3,234.3,281.7,226.9,270,220.1z"/>
	<path class="st2" d="M269.8,118.5v33.8h34.4c-0.1,1.1-0.4,3.3-1.2,6h-33.2v5.1c2.8-1,5.8-1.5,8.9-1.5c5.6,0,11,1.7,15.5,4.8
		c0.7,0.5,1.3,0.9,1.9,1.4h3.2c-0.3,0.7-0.7,1.3-1.1,2c1.1,1.2,2.2,2.4,3.1,3.7c1.2-1.9,2.2-4,3.1-6.1c3.8-8.7,4.2-15.9,4.3-16.1
		c0.2-3.8,3.4-6.8,7.2-6.7c3.9,0.2,6.9,3.4,6.7,7.2c-0.1,1.1-1.1,21.2-16.6,38.6c-0.1,1.6-0.3,3.2-0.7,4.7c-1.1,5-3.6,9.6-7.3,13.3
		c-2.8,2.8-6.2,5-9.8,6.3c8.5,5.7,16.7,12.5,24.6,21.5c0,0,0.1,0,0.1,0.1c5.4,6.3,8.7,14.7,9.5,23.6c1.2,0,2.3,0.5,3.2,1.4
		c0.1,0.1,0.1,0.2,0.2,0.2l0,0c0.1,0.1,0.1,0.2,0.2,0.2c0.2,0.2,0.3,0.4,0.4,0.7c0,0,0.1,0.1,0.1,0.2c0.7,1.5,0.5,3.3-0.5,4.7
		c-2.3,3.1-3.5,6.9-3.5,10.8c0,10,8.2,18.2,18.2,18.2c10.1,0,18.2-8.2,18.2-18.2c0-3.9-1.2-7.6-3.5-10.8c-1-1.4-1.2-3.3-0.4-4.8
		c0-0.1,0.1-0.2,0.2-0.3l0.1-0.1c0.1-0.1,0.2-0.3,0.3-0.4c0.1-0.1,0.2-0.2,0.2-0.3l0.1-0.1c0.9-0.9,2-1.3,3.3-1.4h52.5l-0.1-115.1
		c0,0-0.1,0-0.1,0.1l0,0l-3.8,3.5l0,0c-0.4,0.4-0.8,0.7-1.2,1.1c-0.3,0.3-0.7,0.6-1,1l-1.9,1.8c-1,0.9-1.8,1.6-2.4,2.2
		c-1.4,1.3-2.6,2.4-5.6,5.3c-3.2,3-6.5,6.1-9.7,9c-1.4,1.3-2.9,2.7-4.3,4l0,0c-0.5,0.5-1,0.8-1.5,1.1c-3.3,2-7.2,1.4-10-1.5
		c-1.5-1.6-2.3-3.6-2.5-5.5l-1.9,1.8c-1.3,1.2-2.7,2.4-4.6,3.2c-2.4,1-5,0.7-7.2-0.7s-3.7-3.7-4-6.3c-0.3-2.9,1.2-5.3,2.8-7.1
		c-1.5-0.3-2.8-1-4-2.1c-2.1-2.1-3.1-5.4-2.4-8.3c0.5-2.2,2-3.7,3.1-4.7c0.6-0.6,1.3-1.1,1.9-1.6c-1.3-0.4-2.6-1.1-3.6-2.2l-0.1-0.1
		c-3.5-4-3.1-8.7,1.1-12.5l8.8-8.1l0,0L269.8,118.5z"/>
	<path class="st1" d="M445.1,427.2c-0.1,0-0.1,0-0.2,0c-1.1,0.2-2.2,0.5-3.4,0.9c-3.9,1.1-8.6,2.9-13.6,5.7s-8.9,6-11.9,8.9
		c-0.9,0.9-1.7,1.7-2.5,2.5l-0.1,0.1c-0.6,0.6-1.1,1.2-1.6,1.8l14.8,25.5c0.6-0.5,1.2-0.9,1.8-1.4l0.1-0.1c0.9-0.7,1.8-1.4,2.7-2.2
		c7.8-6.3,15.2-13.1,22.2-20.3c0.8-0.8,1.6-1.7,2.4-2.5l0.1-0.1c0.3-0.4,0.7-0.7,1-1.1l-10.4-18C446.1,427,445.6,427.1,445.1,427.2z
		"/>
	<path class="st1" d="M413.2,78.4c0,0,0,0.1,0.1,0.2c0.5,1,1,2,1.6,3.2c2,3.6,4.7,7.8,8.5,12s7.8,7.4,11.2,9.7c1,0.7,2,1.3,3,1.9
		l0.1,0.1c0.7,0.4,1.4,0.8,2.1,1.2l20-18.4c-0.5-0.6-1-1.1-1.5-1.7l-0.1-0.1c-0.8-0.8-1.5-1.7-2.3-2.5c-6.8-7.1-13.9-13.8-21.4-20.2
		c-0.9-0.7-1.8-1.5-2.6-2.2l-0.1-0.1c-0.4-0.3-0.8-0.6-1.1-0.9l-17.9,16.5C412.8,77.4,413,77.9,413.2,78.4z"/>
	<path class="st1" d="M114,385.5c0-0.2,0.1-0.3,0.1-0.5c0-0.1,0-0.2,0.1-0.2c0.2-0.9,0.4-1.7,0.5-2.2c0.1-0.3,0.1-0.7,0.2-1
		c0.1-0.4,0.2-0.8,0.3-1.2c0.1-0.4,0.2-0.8,0.3-1.1v-0.1v-9.8c-0.2-0.2-0.4-0.5-0.6-0.7c-1-0.9-2.4-1.2-3.6-0.8
		c-0.8,0.3-1.4,0.8-1.9,1.5c-0.6,0.7-1.1,1.5-1.4,2.4c-0.6,1.2-1,2.5-1.5,3.8c0,0.1-0.1,0.2-0.1,0.2c-3.2,7.7-4.2,13.9-5.9,20.9
		c-0.1,0.5-0.3,1-0.4,1.4l0,0c0,0.2-0.1,0.3-0.1,0.5c-0.1,0.5-0.3,1-0.4,1.5c-0.4,1.3-0.8,2.7-1.3,4.1c-1.2,3.5-2.4,7.2-2.3,10.9
		c0,1.1,0.2,2.1,0.4,3.2c0.2,0.9,0,1.9-0.4,2.7c4,3,7.7,6.5,10.9,10.4c3.1,3.8,5.8,7.9,8,12.3c2-1.5,4.5-2.3,7-2.4
		c7.4-0.3,11.1-1.9,16.7-6.6c3.7-3.2,7.1-6,10.4-8.7c0.9-0.8,1.8-1.5,2.7-2.3l10-8.5l4.2-3.5l12.1-10.2c2.6-2.2,3.4-4.7,1.1-7.5
		l-0.1-0.1c-1.3-1.5-3.7-2-5.5-1c-0.1,0-0.1,0.1-0.1,0.1l-0.1,0.1c-0.3,0.2-0.6,0.5-1,0.8c-0.2,0.2-0.4,0.3-0.6,0.5
		c-4.5,3.8-3.4,2.9-7.9,6.6l-6.3,5.3c-0.4,0.3-0.7,0.5-1,0.7c-1.4,0.8-3-0.5-2.3-2c0.3-0.6,0.8-1.1,1.4-1.6
		c5.4-4.5,5.2-4.4,10.6-8.9l8.3-7c1.7-1.4,4.9-3.1,5.5-5.4c0.9-3.2-1.5-7.1-5.2-6.4c-1.9,0.4-3.4,1.7-4.9,3
		c-5.5,4.8-5.6,4.9-11.2,9.6c-2.8,2.3-5.6,4.7-8.5,7c-0.9,0.8-5.9,3.6-4.8-0.2c0.2-0.6,0.5-1.1,1-1.5l23.7-19.9c2.4-2,7-4.8,6.9-8.2
		c-0.2-3.1-3.3-5.3-6.2-4.3c-1.4,0.5-2.7,1.5-3.8,2.5c-6.9,5.9-13.9,11.7-20.8,17.6c-3.5,3-1.4,1.6-5.1,4.3c-1.3,1-6,2.2-4.6-1.3
		c0.2-0.5,0.5-0.9,0.9-1.2c8.5-7.2,11.5-9.7,20-16.8c0.1-0.1,0.2-0.2,0.3-0.2c0.3-0.3,0.6-0.5,0.8-0.8c2.6-3.6-1.6-9.5-6.1-7.2
		c-0.3,0.2-0.7,0.4-1,0.7c-4.8,4.1-9.7,8.2-14.5,12.3c-5.3,4.6-5.2,4.5-10.4,8.8c-2.3,2-4.6,3.9-6.9,5.9c-0.2,0.2-0.5,0.4-0.7,0.6
		c-0.5,0.5-1.1,0.9-1.6,1.4c-0.1,0.1-0.2,0.2-0.4,0.3c-0.4,0.3-0.8,0.6-1.4,0.7c-0.1,0-0.1,0-0.2,0c-0.2,0-0.4,0-0.5-0.1
		c-0.2-0.1-0.4-0.2-0.6-0.4c0,0-0.1-0.1-0.1-0.2c0,0-0.1-0.1-0.1-0.2s-0.1-0.1-0.1-0.2s-0.1-0.2-0.1-0.3s0-0.3-0.1-0.4
		c0-0.2,0-0.3,0-0.5c0-0.1,0-0.2,0-0.3s0-0.1,0-0.2c0,0,0,0,0-0.1C113.9,386,113.9,385.7,114,385.5z"/>
	<path class="st1" d="M113.5,449.2C113.5,449.2,113.5,449.1,113.5,449.2c-0.5-1.1-1-2.2-1.5-3.3c-1.8-3.7-4.3-8-8-12.4
		s-7.4-7.7-10.8-10.2c-1-0.8-2-1.4-2.9-2c-0.1,0-0.1-0.1-0.1-0.1c-0.7-0.5-1.4-0.9-2-1.3l-21,17.7c0.5,0.6,1,1.1,1.5,1.7l0.1,0.1
		c0.8,0.8,1.5,1.7,2.3,2.5c6.6,7.3,13.7,14.2,21.1,20.7c0.9,0.8,1.7,1.5,2.6,2.2l0.1,0.1c0.4,0.3,0.8,0.6,1.1,1l18.1-15.2
		C113.9,450.1,113.7,449.7,113.5,449.2z"/>
	<path class="st1" d="M81.9,114.2c0.1,0,0.1,0,0.2-0.1c1-0.4,2.1-0.9,3.2-1.5c3.7-1.8,8-4.4,12.3-8.1c4.4-3.7,7.7-7.5,10.1-10.9
		c0.7-1,1.4-2,2-2.9l0.1-0.1c0.5-0.7,0.9-1.4,1.2-2L92.5,67.1c-0.6,0.5-1.1,1-1.7,1.5l-0.1,0.1c-0.8,0.8-1.7,1.5-2.5,2.3
		c-7.3,6.6-14.1,13.7-20.6,21.1c-0.8,0.9-1.5,1.7-2.2,2.6l-0.1,0.1c-0.3,0.4-0.6,0.7-0.9,1.1l16.2,18.9
		C80.9,114.6,81.4,114.4,81.9,114.2z"/>
	<path class="st4" d="M-31.6,346.8l-20,5.3l1.6,6l19-5c7.7-2,11.5-5.7,9.8-12.2c-1.6-5.9-6.7-7.8-14.6-5.7l-19,5l1.6,6l20-5.3
		c4.7-1.2,6.2-0.3,6.7,1.4C-26,343.9-27,345.6-31.6,346.8z"/>
	<path class="st4" d="M-58.1,323.5l0.9,5.6l31.4-5.3l-0.9-5.4l-7.1,1.2c-6.3,1.1-11.2,2.1-14.3,2.8v-0.1c2.7-1.2,6.4-3.3,8.9-4.8
		l11.1-6.8l-0.9-5.6l-31.4,5.3l0.9,5.4l6.9-1.2c5.8-1,11.2-2.3,14.5-3v0.1c-2.6,1.3-6.4,3.5-8.6,4.9L-58.1,323.5z"/>
	<polygon class="st4" points="-61.5,299.3 -29.8,296.6 -31,282.3 -36.2,282.7 -35.5,290.8 -62.1,293.1 	"/>
	<path class="st4" d="M-47.2,278.6c8.8-0.2,16.4-3.1,16.2-10.4c-0.1-6.1-5.1-10.2-17.1-10c-7.3,0.1-15.7,2.5-15.6,10.1
		C-63.5,275.4-55.9,278.7-47.2,278.6z M-47.6,264.6c6.5-0.1,11.2,0.8,11.3,3.5c0,2.5-3.6,3.9-10.9,4.1c-6.9,0.1-10.9-1.2-11-3.7
		C-58.3,265.7-53.2,264.7-47.6,264.6z"/>
	<path class="st4" d="M-46.6,251.3c9.1,0.6,16-2.8,16.6-11c0.2-2.1-0.1-3.9-0.4-4.8l-5.2,0.3c0.2,0.8,0.3,2,0.3,3
		c-0.3,3.8-3.4,6.5-11,5.9c-7.9-0.5-10.7-3.9-10.4-7.4c0.1-1.4,0.4-2.2,0.8-2.8l-5.1-1.4c-0.5,0.6-1,2.1-1.2,4.2
		C-62.9,243.5-58.6,250.5-46.6,251.3z"/>
	<path class="st4" d="M-28.4,222.9l-10.5-1.6l-2.4-1.8l13.7-2.7l1-6.7l-18.9,4.6l-12.7-9.2l-1,6.8l9.5,5.7c1.3,0.7,2.6,1.4,3.8,2.1
		v0.1l-14.2-2.1l-0.9,6.1l31.5,4.7L-28.4,222.9z"/>
	
		<rect x="-43.2" y="182" transform="matrix(0.2133 -0.977 0.977 0.2133 -225.0027 116.5414)" class="st4" width="6.2" height="31.9"/>
	<path class="st4" d="M-20.4,184.6l-6.8-2c-6.2-1.8-11-3-14.1-3.7v-0.1c2.9,0.1,7.2-0.1,10.1-0.4l13-1.2l1.6-5.5l-30.6-9l-1.5,5.2
		l6.8,2c5.6,1.7,11.1,2.8,14.3,3.6v0.1c-2.9,0.1-7.3,0.4-9.9,0.6l-13.4,1.2l-1.6,5.5l30.6,9L-20.4,184.6z"/>
	<path class="st4" d="M-27,148.5l4.7,1.9l1.1-2.7l7.2,2.8c0,0.3-0.1,0.7-0.3,1.2c-1.1,2.7-4.8,4.5-11.9,1.7c-7.7-3-9.2-7.2-7.6-11.2
		c0.6-1.4,1.2-2.4,2-3.1l-4.6-2.9c-0.8,0.8-1.9,2.2-2.8,4.5c-2.5,6.4-0.5,14.3,10.3,18.7c5.1,2.1,10,2.5,13.5,0.9
		c2.8-1.2,4.7-3.4,6.1-6.8c0.8-2.2,1.4-5,1.4-6.5l-15.8-6.3L-27,148.5z"/>
	<path class="st4" d="M2.3,127.5l2.9-5.5l-11-5.9l-13.8-15.5l-3.1,5.7l5.7,5.2c1.7,1.6,3.5,3.1,5.4,4.6v0.1
		c-2.3-0.7-4.7-1.3-6.8-1.7l-7.7-1.7l-3.1,5.8l20.7,3.2L2.3,127.5z"/>
	<path class="st4" d="M-3.2,104.2c7.4,4.8,15.3,6.5,19.3,0.4c3.3-5.1,1.5-11.3-8.6-17.8c-6.1-4-14.4-6.7-18.6-0.3
		C-14.9,92.4-10.5,99.4-3.2,104.2z M-6.7,89.6c1.5-2.4,6.3-0.4,10.9,2.7c5.4,3.5,8.9,6.9,7.4,9.1c-1.4,2.1-5.2,1.3-11.3-2.7
		C-5.4,95.1-8,91.7-6.7,89.6z"/>
	<path class="st4" d="M31.3,83.1c3.8-4.8,2.2-10-4.3-15L11.5,56l-3.8,4.9l16.4,12.7c3.8,3,4,4.8,2.9,6.2c-1,1.3-3,1.5-6.7-1.4
		L3.9,65.7l-3.8,4.9l15.5,12.1C22,87.6,27.2,88.3,31.3,83.1z"/>
	<path class="st4" d="M46.4,64.6l-9.3-8.7l0.6-0.7c1.4-1.5,2.9-1.5,6.2,0.8c2.9,2.1,5.8,3.7,6.7,4l4.4-4.8c-1.2-0.4-4.7-2.4-7.7-4.4
		c-2.9-1.9-5.2-2.5-7.3-1.5l-0.1-0.1c1.1-3.4,0-6.7-2.5-9c-2-1.9-4-2.9-6.6-2.6c-2.7,0.2-5.2,2.1-7.5,4.6c-1.6,1.7-3.1,3.7-4.2,5.4
		l23,21.4L46.4,64.6z M34.4,51.9l-0.8,0.8l-7-6.5c0.1-0.3,0.5-0.8,0.9-1.2c1.9-2,4.1-1.5,6.1,0.4C35.6,47.3,36.2,49.9,34.4,51.9z"/>
	<path class="st4" d="M67.9,39.5c3,0.3,5.8-0.7,8.6-3.1c1.8-1.5,3.6-3.8,4.3-5.1l-11-13l-6.6,5.5l3.3,3.9l2.2-1.9l5,5.9
		c-0.1,0.2-0.4,0.5-0.8,0.9c-2.2,1.9-6.3,1.7-11.3-4.2c-5.3-6.3-4.6-10.7-1.4-13.5c1.2-1,2.2-1.6,3.2-1.8l-2.7-4.8
		c-1.1,0.3-2.7,1-4.6,2.6c-5.2,4.4-7.2,12.4,0.2,21.3C59.9,36.5,64.1,39.2,67.9,39.5z"/>
	<polygon class="st4" points="99.2,18.9 96.1,14.5 89.4,19.2 84.4,12.2 90.3,8 87.3,3.8 81.4,8 77.1,2.1 83.4,-2.4 80.2,-6.8 
		69,1.3 87.5,27.2 	"/>
	<path class="st4" d="M110,12l-3.7-6.1c-3.3-5.5-6-9.6-7.8-12.3h0.1c2.1,2,5.4,4.8,7.7,6.6l10.4,7.9l4.9-2.9l-16.4-27.4l-4.7,2.8
		l3.6,6c3,5,6.2,9.6,8.1,12.4h-0.1c-2.2-1.9-5.6-4.7-7.7-6.3l-10.6-8.2l-4.9,2.9l16.4,27.4L110,12z"/>
	<polygon class="st4" points="142.2,-5.3 139.8,-10.1 132.5,-6.5 128.7,-14.3 135.2,-17.5 132.9,-22.1 126.4,-18.9 123.2,-25.5 
		130,-28.9 127.7,-33.7 115.2,-27.6 129.3,1 	"/>
	<polygon class="st4" points="142.5,-33.8 152.2,-9.6 158,-11.9 148.2,-36.2 153.5,-38.3 151.4,-43.6 135.1,-37.1 137.2,-31.8 	"/>
	
		<rect x="164.3" y="-48.1" transform="matrix(0.9496 -0.3134 0.3134 0.9496 18.5097 50.8437)" class="st4" width="6.2" height="31.9"/>
	<path class="st4" d="M194-23c2.1-0.5,3.7-1.3,4.4-1.9l-1.9-4.9c-0.7,0.4-1.8,1-2.8,1.2c-3.7,1-7.2-1.2-9.1-8.6
		c-2-7.6,0.3-11.4,3.7-12.3c1.3-0.4,2.2-0.3,2.9-0.1l-0.3-5.3c-0.7-0.3-2.3-0.3-4.4,0.3c-6,1.6-11.3,7.8-8.2,19.4
		C180.6-26.4,186.1-20.9,194-23z"/>
	<path class="st4" d="M221.9-28.8l-1.7-11.8c0.4,0,0.8-0.1,1.2-0.1c2.6-0.4,5.6-1.7,7.3-4.1c1.4-2,2.1-4.5,1.6-8
		c-0.4-2.7-1.6-5.2-3.7-6.5c-2.3-1.6-5.3-1.7-8.9-1.2c-2.3,0.3-4.7,0.9-6.3,1.5l4.4,31.1L221.9-28.8z M219.7-55.7
		c2.9-0.4,4.3,1.6,4.7,4.4c0.4,3-0.6,5.4-3.7,5.8c-0.4,0-0.7,0.1-1,0.1l-1.4-9.8C218.6-55.5,219.1-55.7,219.7-55.7z"/>
	<path class="st4" d="M243-38.4l5.7-0.4l1.8,7.2l6-0.4l-8.2-31.4l-7.4,0.5L236-30.6l6-0.4L243-38.4z M244.1-50
		c0.2-1.9,0.5-5.1,0.7-7.3h0.1c0.4,2.1,1,5.2,1.5,7.2l1.5,6.6l-4.5,0.3L244.1-50z"/>
	<path class="st4" d="M267.8-37.1c-1.8,0-4-0.6-5.2-1.3l-1,5.3c1.1,0.6,3.5,1.3,6.1,1.4c6.2,0.1,10.6-3.7,10.7-9.5
		c0.1-3.4-1.4-6.6-5.6-9.2c-3.4-2.1-4.3-3.1-4.3-5c0-1.7,1.3-3.3,4-3.2c1.8,0,3.1,0.6,4,1.1l1.1-5.3c-0.9-0.6-2.9-1.2-5-1.2
		c-6.6-0.1-10.1,4.1-10.2,9.2c0,2.9,1.6,6.3,5.9,9c2.7,1.8,4.1,3,4,5.3C272.2-38.5,270.7-37,267.8-37.1z"/>
	<polygon class="st4" points="288.5,-31.1 294.7,-30.6 297,-56.6 302.6,-56.1 303.1,-61.8 285.7,-63.4 285.2,-57.7 290.8,-57.2 	"/>
	<path class="st4" d="M304.9-23.8c2.5-3.1,5.2-7.7,7.2-11.8l-6.3-0.4c-1,3.6-3,8.3-4.9,12L304.9-23.8z"/>
	<polygon class="st4" points="337.9,-23.1 343.9,-48.6 349.5,-47.2 350.8,-52.8 333.7,-56.9 332.4,-51.3 337.9,-50 331.8,-24.6 	"/>
	<path class="st4" d="M356.9-17.2c5.8,1.9,11.3-1.5,15-12.9c2.2-6.9,2.8-15.7-4.5-18c-6.8-2.2-12.4,3.9-15,12.2
		C349.7-27.6,350-19.4,356.9-17.2z M358.5-33.9c2.1-6.5,4.7-10,7-9.2c2.7,0.9,1.9,6,0.2,11.3c-2,6.2-4.4,10.4-6.9,9.5
		C356.5-23,356.3-27,358.5-33.9z"/>
	<path class="st4" d="M383.6-7.3c2.1,0.9,5,1.5,6.5,1.5l6.6-15.7l-7.9-3.3l-2,4.7l2.7,1.1l-3,7.1c-0.2,0-0.7-0.1-1.2-0.4
		c-2.7-1.1-4.4-4.9-1.4-11.9c3.2-7.6,7.4-9,11.4-7.3c1.4,0.6,2.4,1.3,3.1,2.1l3-4.5c-0.7-0.8-2.2-1.9-4.4-2.9
		c-6.3-2.7-14.3-0.8-18.9,9.8c-2.2,5-2.7,10-1.2,13.5C378-10.8,380.2-8.7,383.6-7.3z"/>
	<polygon class="st4" points="409.5,5.1 412,0.3 404.7,-3.5 408.7,-11.1 415.1,-7.8 417.5,-12.4 411.1,-15.7 414.5,-22.2 
		421.3,-18.7 423.7,-23.4 411.5,-29.8 396.7,-1.6 	"/>
	<polygon class="st4" points="418.9,10.6 424.2,13.9 437.9,-8.4 442.7,-5.4 445.8,-10.3 430.9,-19.5 427.9,-14.6 432.6,-11.6 	"/>
	<polygon class="st4" points="439.3,24.1 447.2,13.4 452.4,17.2 444.5,28 449.5,31.7 468.4,6 463.5,2.3 455.9,12.6 450.6,8.8 
		458.2,-1.5 453.2,-5.2 434.3,20.4 	"/>
	<polygon class="st4" points="466.9,46.6 470.5,42.6 464.3,37.2 470,30.7 475.5,35.5 478.9,31.6 473.4,26.8 478.2,21.3 484,26.4 
		487.6,22.3 477.1,13.2 456.1,37.2 	"/>
	<path class="st4" d="M476.7,56.2l9.1-8.9l0.7,0.7c1.4,1.5,1.3,3-1.1,6.1c-2.2,2.8-4,5.6-4.4,6.5l4.5,4.6c0.4-1.2,2.7-4.6,4.8-7.5
		c2-2.8,2.7-5,1.8-7.2l0.1-0.1c3.3,1.3,6.7,0.3,9.1-2c2-1.9,3.1-3.8,3-6.5c-0.1-2.8-1.9-5.3-4.2-7.8c-1.7-1.7-3.5-3.3-5.2-4.4
		l-22.5,21.9L476.7,56.2z M496,37.3c0.3,0.1,0.8,0.5,1.2,1c1.8,2,1.2,4.1-0.7,6c-2,2-4.6,2.4-6.5,0.5l-0.8-0.8L496,37.3z"/>
	<path class="st4" d="M495.5,66.7c-3.2,2-7.8,4.2-11.6,5.8l2.9,2.8c3.9-0.6,9-2.3,13.2-4L495.5,66.7z"/>
	<path class="st4" d="M518.9,88.4c0.2,0.4,0.4,0.7,0.7,1c1.5,2.1,4.1,4.2,6.9,4.7c2.4,0.4,5-0.2,7.8-2.1c2.2-1.5,3.9-3.7,4.2-6.2
		c0.4-2.8-0.8-5.5-2.9-8.5c-1.3-2-2.9-3.8-4.2-5l-25.9,17.8l3.5,5.1L518.9,88.4z M531.2,79.9c0.3,0.2,0.7,0.7,1.1,1.1
		c1.6,2.4,0.5,4.5-1.8,6.1c-2.4,1.7-5.1,1.8-6.8-0.8c-0.2-0.3-0.4-0.6-0.6-0.9L531.2,79.9z"/>
	
		<rect x="518.7" y="102.1" transform="matrix(0.8595 -0.5111 0.5111 0.8595 21.344 288.0352)" class="st4" width="31.9" height="6.2"/>
	<polygon class="st4" points="534.5,126.8 542.2,122.9 545.5,129.3 550.1,127 546.8,120.5 553.3,117.2 556.8,124 561.6,121.5 
		555.3,109.2 526.9,123.8 533.5,136.6 538.3,134.1 	"/>
	<path class="st4" d="M550.2,135.9c-8.4,3.5-13,9.7-9.8,17.2c0.8,2,1.8,3.4,2.6,4.1l4.6-2.6c-0.5-0.6-1.2-1.6-1.6-2.6
		c-1.5-3.5,0.2-7.3,7.2-10.3c7.3-3.1,11.3-1.3,12.7,1.9c0.5,1.3,0.6,2.1,0.6,2.9l5.2-1.1c0.2-0.7,0-2.3-0.9-4.3
		C568.2,135.5,561.3,131.2,550.2,135.9z"/>
	<polygon class="st4" points="549.4,177.2 554.5,175.5 551.9,167.8 560.1,165 562.4,171.9 567.3,170.2 565,163.4 571.9,161 
		574.4,168.3 579.5,166.5 575,153.4 544.8,163.6 	"/>
	<path class="st4" d="M555.3,200.7c1.1,5.2,2.9,8.2,5.3,9.6c1.8,1.2,4.1,1.6,6.6,1c3.5-0.7,6-3.2,6.3-7.1h0.2c2,2.8,5,3.6,7.8,3.1
		c2.2-0.5,4.1-1.6,5.2-3.5c1.4-2.6,1.2-5.5,0.6-8.4c-0.6-2.6-1.2-5-2.1-6.8l-30.6,6.5C554.5,196.4,554.8,198.4,555.3,200.7z
		 M582.2,195.5c0.2,0.3,0.4,0.9,0.5,1.6c0.5,2.5-1,3.9-3.3,4.4c-2.6,0.5-4.8-0.7-5.2-2.9l-0.3-1.3L582.2,195.5z M569.5,198.1
		l0.3,1.3c0.5,2.4-0.7,4.9-3.8,5.5c-3.2,0.7-5.1-1-5.6-3.5c-0.1-0.5-0.2-1-0.2-1.4L569.5,198.1z"/>
	<path class="st4" d="M559.7,223.9l0.8,6.2l12.3-1.6l20.2,4.6l-0.8-6.4l-7.7-0.9c-2.3-0.3-4.7-0.5-7-0.6v-0.1
		c2.3-0.8,4.6-1.7,6.5-2.5l7.3-3.1l-0.8-6.6l-18.6,9.4L559.7,223.9z"/>
	<path class="st4" d="M562.4,259.7l11.9-0.2c0,0.4,0,0.8,0,1.2c0,2.6,1.1,5.8,3.2,7.7c1.8,1.6,4.3,2.6,7.7,2.6c2.7,0,5.3-0.9,7-2.9
		c1.9-2.1,2.4-5,2.3-8.7c0-2.4-0.3-4.7-0.7-6.5l-31.4,0.5V259.7z M579.3,259.4l9.9-0.2c0.2,0.4,0.2,0.9,0.3,1.5
		c0.1,2.9-2.1,4.1-4.9,4.1c-3,0-5.2-1.3-5.3-4.4C579.3,260.1,579.3,259.7,579.3,259.4z"/>
	
		<rect x="574.8" y="266.4" transform="matrix(5.450225e-02 -0.9985 0.9985 5.450225e-02 264.5566 843.9969)" class="st4" width="6.2" height="31.9"/>
	<polygon class="st4" points="559.5,307.6 564.9,308.2 565.9,300.1 574.4,301.1 573.6,308.3 578.7,308.9 579.5,301.7 586.8,302.5 
		585.9,310.2 591.3,310.8 592.9,297 561.2,293.3 	"/>
	<path class="st4" d="M556.1,325.2c-0.4,2.1-0.4,3.9-0.2,4.8l5.2,0.4c-0.1-0.8-0.1-2,0.1-3c0.7-3.7,4.2-6,11.7-4.5
		c7.8,1.5,10.1,5.2,9.5,8.6c-0.3,1.3-0.7,2.1-1.2,2.7l4.9,2c0.5-0.5,1.2-1.9,1.7-4.1c1.2-6.1-2.2-13.5-14-15.8
		C564.9,314.6,557.6,317.2,556.1,325.2z"/>
	<polygon class="st4" points="550.1,350.3 555.4,351.7 557.5,343.8 565.8,346 563.9,353 568.9,354.4 570.8,347.4 577.9,349.3 
		575.9,356.7 581.1,358.1 584.7,344.7 553.9,336.4 	"/>
	<path class="st5" d="M-263.2,564l-30.5,100.1h23.5l7.1-25.7h28.7l7.8,25.7h24.3L-233.4,564H-263.2z M-259.8,621.5l5.9-21.2
		c1.6-5.8,3.1-13.4,4.6-19.3h0.3c1.5,5.9,3.3,13.4,5.1,19.3l6.3,21.2H-259.8z"/>
	<path class="st5" d="M-169.1,590.2l0.5-0.2c4.9,11.7,11.5,24.6,17.4,35.3l21.4,38.6h23.8l-0.1-100.1h-20.8V593
		c0,15,0.5,28.5,2,41.7h-0.4c-4.5-11.3-10.4-23.8-16.4-34.3l-20.8-36.7h-26.4l0.1,100.1h20.8v-30.2
		C-168.2,617.5-168.5,603.4-169.1,590.2z"/>
	<path class="st5" d="M-35.5,580.9c8,0,14.4,1.8,19,3.7l4.6-18c-4-2.1-12.9-4.4-24.7-4.4c-30.3,0-54.6,19.1-54.6,53.2
		c0,28.5,17.9,50,52.5,50c12.2,0,21.5-2.2,25.7-4.3l-3.4-17.7c-4.4,1.8-12,3.3-18.9,3.3c-20.2,0-32.1-12.6-32.1-32.6
		C-67.4,591.8-53.5,580.9-35.5,580.9z"/>
	<polygon class="st5" points="63.5,563.7 1.8,563.8 1.9,663.9 65.7,663.8 65.7,645.2 24.6,645.3 24.5,621.5 61.4,621.5 61.3,603.1 
		24.5,603.1 24.5,582.3 63.6,582.3 	"/>
	<path class="st5" d="M107,646.7c-9.7,0-19-3.1-25.1-6.2l-4.6,18.7c5.7,3.1,16.9,6.1,28.4,6.1c27.5,0,40.4-14.3,40.4-31.1
		c0-14.1-8.3-23.3-26-29.8c-12.9-4.9-18.6-7.7-18.6-14.1c0-5.2,4.7-9.7,14.5-9.7s16.9,2.8,20.9,4.7l5-18.3c-5.9-2.7-14.3-5-25.6-5
		c-23.6,0-37.8,13.1-37.8,30.2c0,14.6,10.9,23.8,27.5,29.5c12,4.3,16.8,7.8,16.8,14.1C122.9,642.4,117.4,646.7,107,646.7z"/>
	<polygon class="st5" points="230.6,563.5 153.7,563.6 153.7,582.6 180.6,582.6 180.6,663.7 203.4,663.7 203.3,582.6 230.6,582.6 	
		"/>
	<path class="st5" d="M265.1,624.3h6.8c9.2,0.1,13.5,3.6,16.2,16c3,12.3,5.4,20.5,7,23.3h23.2c-1.9-3.9-5.1-16.9-8.2-28.2
		c-2.5-9.2-6.4-15.9-13.4-18.7v-0.4c8.6-3.1,17.7-11.9,17.7-24.7c0-9.2-3.3-16.2-9.2-20.9c-7.1-5.6-17.5-7.8-32.4-7.8
		c-12,0-22.9,0.9-30.1,2.1l0.1,98.8h22.4L265.1,624.3z M265,580.3c1.6-0.3,4.8-0.8,10.2-0.8c10.4,0.1,16.6,4.7,16.6,13.9
		c0,8.8-6.7,14.4-17.9,14.4H265V580.3z"/>
	<path class="st5" d="M355.3,563.4l-30.5,100.1h23.5l7.1-25.7h28.7l7.8,25.7h24.3l-31.1-100.1H355.3z M358.6,620.9l5.9-21.2
		c1.6-5.8,3.1-13.4,4.6-19.3h0.3c1.5,5.9,3.3,13.4,5.1,19.3l6.3,21.2H358.6z"/>
	<polygon class="st5" points="452.1,563.3 429.4,563.4 429.5,663.4 492,663.4 492,644.4 452.2,644.4 	"/>
	<path class="st4" d="M535.3,564.6l0.1,98.3c5.6,0.7,14,1.5,25.7,1.5c19.6,0,35.6-4.2,46.2-13c9.6-8.2,16.6-21.4,16.6-40.6
		c0-17.7-6.6-30-17-37.7c-9.7-7.3-22-10.7-41-10.7C554.5,562.5,543.6,563.3,535.3,564.6z M599.8,611.6c0,23.9-13.3,35.2-33.8,35.1
		c-2.8,0-5.9,0-7.9-0.4l-0.1-65.5c1.9-0.4,5.2-0.9,10.2-0.9C587.7,579.8,599.9,590.8,599.8,611.6z"/>
	<path class="st4" d="M700.7,563.1v29.2c0,15,0.5,28.5,2,41.7h-0.4c-4.5-11.3-10.4-23.8-16.4-34.3L665.1,563h-26.4l0.1,100.1h20.8
		v-30.2c0-16.3-0.3-30.4-0.9-43.7l0.4-0.2c4.9,11.7,11.5,24.6,17.4,35.3l21.4,38.6h23.8l-0.1-100.1L700.7,563.1z"/>
	<path class="st4" d="M794.1,563h-29.7l-30.5,100.1h23.5l7.1-25.7h28.7l7.8,25.7h24.3L794.1,563z M767.7,620.5l5.9-21.2
		c1.6-5.8,3.1-13.4,4.6-19.3h0.3c1.5,5.9,3.3,13.4,5.1,19.3l6.3,21.2H767.7z"/>
	<path class="st5" d="M-127.5,699.4c4.5,0,8,1,10.6,2.1l2.6-10c-2.2-1.2-7.2-2.5-13.7-2.5c-16.9,0-30.4,10.6-30.4,29.6
		c0,15.9,9.9,27.8,29.2,27.8c6.8,0,12-1.2,14.3-2.4l-1.9-9.8c-2.5,1-6.7,1.8-10.5,1.8c-11.2,0-17.9-7-17.9-18.2
		C-145.3,705.4-137.5,699.4-127.5,699.4z"/>
	<path class="st5" d="M-84.7,688.9c-16.4,0-27.1,12.5-27.1,29.2c0,15.9,9.7,28.3,26.2,28.3c16.3,0,27.3-11.1,27.3-29.4
		C-58.3,701.7-67.6,688.9-84.7,688.9z M-84.9,736.5c-8.4,0-13.6-7.7-13.6-18.6c0-10.8,4.9-18.9,13.4-18.9c8.7,0,13.5,8.6,13.5,18.6
		C-71.5,728.4-76.4,736.4-84.9,736.5z"/>
	<polygon class="st5" points="-37.3,734.9 -37.4,689.8 -50,689.8 -50,745.5 -15.2,745.5 -15.2,734.9 	"/>
	<polygon class="st5" points="4.9,734.9 4.9,689.8 -7.8,689.8 -7.7,745.5 27.1,745.4 27,734.9 	"/>
	<path class="st5" d="M47.9,689.7l-17,55.7H44l3.9-14.3h15.9l4.3,14.3h13.6l-17.3-55.7H47.9z M49.8,721.7l3.3-11.8
		c0.9-3.2,1.7-7.4,2.6-10.8h0.2c0.8,3.3,1.8,7.4,2.8,10.7l3.5,11.8L49.8,721.7z"/>
	<path class="st5" d="M119.4,715.4v-0.2c6.3-2.3,9.2-6.9,9.2-11.9s-2.8-8.8-6.7-10.9c-4.1-2.4-8.8-3.1-16.4-3.1
		c-6.3,0-13,0.5-16.3,1.2l0.1,54.7c2.8,0.4,7.4,0.8,13.6,0.8c11.1,0,17.8-1.8,21.9-5.1c3.5-2.8,5.8-6.8,5.8-11.8
		C130.5,721.9,125.8,717.1,119.4,715.4z M101.6,698.8c1.1-0.2,2.6-0.3,5.4-0.3c5.7,0,8.9,2.2,8.9,6.4c0,4.1-3.6,6.9-10.2,6.9h-4.1
		L101.6,698.8z M106.6,736.6c-2.2,0-3.6,0-4.9-0.2v-15.7h4.3c6.3,0,11.3,2.2,11.3,7.8C117.3,734.4,112.2,736.6,106.6,736.6z"/>
	<path class="st5" d="M163.6,688.7c-16.4,0-27.1,12.5-27.1,29.2c0,15.9,9.7,28.3,26.2,28.3c16.3,0,27.3-11.1,27.3-29.4
		C190.1,701.5,180.7,688.7,163.6,688.7z M163.4,736.2c-8.4,0-13.6-7.7-13.6-18.6c0-10.8,4.9-18.9,13.4-18.9
		c8.7,0,13.5,8.6,13.5,18.6C176.8,728.1,171.9,736.2,163.4,736.2z"/>
	<path class="st5" d="M228.4,719.1v-0.2c4.8-1.7,9.8-6.6,9.8-13.7c0-5.1-1.8-9-5.1-11.7c-4-3.1-9.8-4.4-18-4.4
		c-6.7,0-12.7,0.5-16.8,1.2l0.1,54.9h12.5v-21.9h3.8c5.1,0.1,7.5,2,9,8.9c1.7,6.9,3,11.4,3.9,13h12.9c-1.1-2.2-2.8-9.4-4.6-15.7
		C234.5,724.4,232.3,720.7,228.4,719.1z M215.8,714.3h-5v-15.4c0.9-0.2,2.6-0.4,5.7-0.4c5.8,0.1,9.3,2.6,9.3,7.8
		C225.8,711.1,222,714.3,215.8,714.3z"/>
	<path class="st5" d="M261,689.5l-17,55.7h13.1l3.9-14.3h15.9l4.3,14.3h13.6l-17.3-55.7H261z M262.9,721.5l3.3-11.8
		c0.9-3.2,1.7-7.4,2.6-10.8h0.2c0.8,3.3,1.8,7.4,2.8,10.7l3.5,11.8L262.9,721.5z"/>
	<polygon class="st5" points="334,689.5 291.2,689.5 291.2,700.1 306.2,700.1 306.2,745.2 318.8,745.2 318.8,700 334,700 	"/>
	<rect x="340.7" y="689.4" class="st5" width="12.6" height="55.7"/>
	<path class="st5" d="M388.8,688.5c-16.4,0-27.1,12.5-27.1,29.2c0,15.9,9.7,28.3,26.2,28.3c16.3,0,27.3-11.1,27.3-29.4
		C415.2,701.3,405.9,688.5,388.8,688.5z M388.6,736c-8.4,0-13.6-7.7-13.6-18.6c0-10.8,4.9-18.9,13.4-18.9c8.7,0,13.5,8.6,13.5,18.6
		C402,727.9,397.1,736,388.6,736z"/>
	<path class="st5" d="M458,689.3v16.3c0,8.3,0.3,15.9,1.1,23.2h-0.2c-2.5-6.3-5.8-13.2-9.1-19.1l-11.6-20.4h-14.7l0.1,55.7h11.6
		v-16.8c0-9.1-0.2-16.9-0.5-24.3l0.2-0.1c2.7,6.5,6.4,13.7,9.7,19.7l11.9,21.5h13.2l-0.1-55.7L458,689.3z"/>
	<polygon class="st5" points="532.6,689.3 489.8,689.3 489.8,699.9 504.7,699.9 504.8,745 517.4,745 517.4,699.9 532.6,699.9 	"/>
	<path class="st5" d="M561.4,688.3c-16.4,0-27.1,12.5-27.1,29.2c0,15.9,9.7,28.3,26.2,28.3c16.3,0,27.3-11.1,27.3-29.4
		C587.9,701.1,578.5,688.3,561.4,688.3z M561.2,735.9c-8.4,0-13.6-7.7-13.6-18.6c0-10.8,4.9-18.9,13.4-18.9
		c8.7,0,13.5,8.6,13.5,18.6C574.6,727.7,569.7,735.8,561.2,735.9z"/>
	<path class="st5" d="M620.7,688.3c-16.4,0-27.1,12.5-27.1,29.2c0,15.9,9.7,28.3,26.2,28.3c16.3,0,27.3-11.1,27.3-29.4
		C647.1,701.1,637.8,688.3,620.7,688.3z M620.5,735.8c-8.4,0-13.6-7.7-13.6-18.6c0-10.8,4.9-18.9,13.4-18.9
		c8.7,0,13.5,8.6,13.5,18.6C633.8,727.7,629,735.8,620.5,735.8z"/>
	<polygon class="st5" points="668,734.3 668,689.1 655.4,689.2 655.4,744.9 690.2,744.8 690.2,734.2 	"/>
	<path class="st1" d="M227.8,158.3h32.8v-6h-34C226.8,153.4,227.1,155.5,227.8,158.3z"/>
	<path class="st1" d="M304.2,152.3h-34.4v6H303C303.8,155.5,304.1,153.4,304.2,152.3z"/>
	<path class="st1" d="M235,174.2h26.9c-0.7-0.7-1.1-1.5-1.2-2.5c0-0.2-0.1-0.5-0.1-0.7v-2.8h-29.2
		C232.5,170.3,233.7,172.3,235,174.2z"/>
	<path class="st1" d="M283.2,171.7c-1.4-0.3-2.9-0.5-4.4-0.5s-3,0.2-4.4,0.5c-2,0.5-3.9,1.3-5.6,2.5h20.1
		C287.1,173.1,285.2,172.2,283.2,171.7z"/>
	<path class="st1" d="M296.2,168.2c0.7,0.6,1.3,1.2,2,1.8c0.1,0.1,0.1,0.1,0.2,0.2c0.4-0.7,0.7-1.3,1.1-2H296.2z"/>
	<path class="st1" d="M253.6,190.1h23.6c0.1-0.1,0.2-0.1,0.3-0.2c3.3-1.7,6.4-3.6,9.1-5.9h-42.4c2.8,2.2,5.8,4.2,9.1,5.9
		C253.4,190,253.5,190,253.6,190.1z"/>
	<path class="st1" d="M243.1,237.7h17.6v-1v-5H251C248.3,233.6,245.6,235.5,243.1,237.7z"/>
	<path class="st1" d="M279.9,231.7h-10v6h17.9C285.2,235.5,282.6,233.6,279.9,231.7z"/>
	<path class="st1" d="M231.8,248.7c-1.2,1.4-2.2,3.1-3,4.9h31.9v-6h-27.9C232.5,247.9,232.2,248.3,231.8,248.7z"/>
	<path class="st1" d="M299,248.7c-0.3-0.4-0.7-0.8-1-1.1h-28.1v6H302C301.2,251.8,300.2,250.1,299,248.7z"/>
	<path class="st1" d="M235,285.4h25.8v-4.7v-1.3h-30.1C231.8,281.3,233.2,283.3,235,285.4z"/>
	<path class="st1" d="M300.2,279.3H270v1.3v4.7h25.9C297.7,283.3,299.1,281.3,300.2,279.3z"/>
	<path class="st1" d="M256.2,301.2h4.5v-2v-4H247C250.2,297.3,253.3,299.3,256.2,301.2z"/>
	<path class="st1" d="M283.9,295.2H270v5.3v0.7h4.6C277.6,299.3,280.7,297.3,283.9,295.2z"/>
	<path class="st1" d="M250.8,342.8c-3.2,2-6.1,4-8.8,6h46.8c-2.7-2-5.7-4-8.8-6H250.8z"/>
	<path class="st1" d="M239.5,364.7c-0.7-0.3-1.3-0.7-1.9-1.1c-2.2-1.3-4.1-3-5.8-4.9c-1.3,2-2.3,4-2.9,6H239.5z"/>
	<path class="st6" d="M251.9,358.7c0.4,0,0.8,0,1.2,0h-2.4C251.1,358.7,251.5,358.7,251.9,358.7z"/>
	<path class="st1" d="M299.1,358.7H270c0,0.1,0,0.2,0,0.2v5.8h32C301.4,362.7,300.5,360.7,299.1,358.7z"/>
	<path class="st1" d="M227.3,374.6c0,1.2-0.1,2.3-0.1,3.6c0,0.8-0.1,1.7-0.3,2.5h33.9v-6L227.3,374.6L227.3,374.6z"/>
	<path class="st1" d="M303.9,380.6c-0.2-0.8-0.3-1.6-0.3-2.5c0-1.2,0-2.4-0.1-3.6h-33.4v6L303.9,380.6L303.9,380.6z"/>
	<path class="st1" d="M222.1,151.7c-0.2-3.8-3.4-6.8-7.2-6.7s-6.9,3.4-6.7,7.2c0.1,1.5,1.8,36.2,36.7,54c0.6,0.3,1.1,0.6,1.7,0.9
		c4.7-2.9,9.4-5.5,14.2-8.1c-3-1.6-6.1-3.3-9.2-5c-0.1,0-0.2-0.1-0.3-0.1c-11.5-5.8-19.9-14.6-24.9-26.2
		C222.5,159,222.1,151.9,222.1,151.7z"/>
	<path class="st1" d="M208.8,377.8c-0.1,3.8,3,7,6.9,7.1h0.1c3.8,0,6.9-3,7-6.9c0.1-7.5,0.3-15.3,6.1-23c-2.7-4.2-4.2-9.2-4.2-14.5
		c0-0.5,0-1,0-1.5C209.2,352.8,209,367.8,208.8,377.8z"/>
	<path class="st1" d="M297.1,308.5c0.9-0.6,1.8-1.2,2.6-1.9c0.1-0.1,0.2-0.1,0.3-0.2c0.3-0.2,0.6-0.5,0.9-0.7
		c0.1-0.1,0.2-0.2,0.3-0.3c0.4-0.3,0.7-0.6,1.1-0.8c6.1-5,10.5-10.3,13.5-15.5c-0.9-2.1-1.5-4.2-1.9-6.5c-0.2-1.4-0.3-2.8-0.3-4.2
		c0-3.1,0.5-6,1.5-8.9h-6.7c-1.2,7.5-5.5,18.1-19.1,27.4c-4.1,2.8-7.9,5.3-11.6,7.7c-0.9,0.6-1.8,1.2-2.7,1.7
		c-0.2,0.1-0.3,0.2-0.4,0.3c-1.5,1-3.1,1.9-4.5,2.8v4.5v4.3v3.9c0,1.8-1,3.3-2.5,4.1c-0.7,0.3-1.4,0.5-2.1,0.5c-1,0-1.9-0.3-2.7-0.9
		c-2.1-1.6-4.5-2.6-7.1-3.1c-1.2-0.2-2.4-0.4-3.7-0.4c-1.2,0-2.5,0.1-3.7,0.4c-3.8,2.3-7.4,4.6-10.9,6.9l0,0
		c-2.3,3.1-3.7,6.9-3.7,11c0,0.6,0,1.2,0.1,1.7c0.2,2.1,0.8,4.2,1.7,6c7.5-6.1,16.4-11.5,27.8-18.3C273,324.1,284,317.4,297.1,308.5
		z"/>
	<path class="st1" d="M313,236.6c-7.9-9-16.1-15.8-24.6-21.5c-2.1,0.8-4.2,1.3-6.4,1.5c-1.1,0.1-2.1,0.2-3.2,0.2
		c-0.8,0-1.7,0-2.5-0.1l0,0c-2.1,1.2-4.2,2.3-6.2,3.4c11.7,6.8,22.3,14.1,32.4,25.6c3.2,3.8,5.3,9,6.1,14.5h4.7h5h4.3
		C321.8,251.4,318.4,243,313,236.6C313,236.7,313,236.6,313,236.6z"/>
	<path class="st1" d="M304.3,337.5c-6.2-5-13.2-9.6-21.2-14.5c-4.7,3-9.2,5.7-13.4,8.2c10.4,6.2,18.7,11.3,25.7,17.1
		c12.3,10,12.4,20.1,12.6,29.8c0.1,3.8,3.2,6.9,7,6.9h0.1c3.9-0.1,6.9-3.2,6.9-7.1C321.9,367.4,321.6,351.6,304.3,337.5z"/>
	<path class="st1" d="M233.7,308.5c3.3,2.2,6.4,4.3,9.4,6.3c1.8-0.6,3.7-1,5.6-1.3c1-0.1,2.1-0.2,3.2-0.2c1,0,2,0,2.9,0.2
		c1.9-1.1,3.9-2.3,5.9-3.6c0.1-0.1,0.2-0.2,0.4-0.2c-0.1-0.1-0.2-0.2-0.4-0.2c-5.9-3.7-12.3-7.8-19.2-12.5
		c-13.6-9.2-17.9-19.8-19.1-27.3h-7.5h-6.5c0,0.4,0.1,0.8,0.1,1.1C209.9,281.1,215.4,296.1,233.7,308.5z"/>
	<path class="st1" d="M279.6,193.9c-0.1,0-0.2,0.1-0.3,0.1c-3.9,2.2-7.8,4.3-11.6,6.3c-17.7,9.5-34.3,18.5-49.8,36.2
		c0,0-0.1,0-0.1,0.1c-1,1.2-2,2.5-2.9,3.8c1.2,2.6,1.9,5.4,2.2,8.3l0,0c0.1,0.9,0.1,1.7,0.1,2.6c0,3-0.5,6-1.4,8.9h6.6
		c0.7-5.6,2.8-10.8,6.1-14.6c10.1-11.5,20.6-18.8,32.2-25.5v-5v-4.2v-3.2c0-1.8,1-3.3,2.5-4.1c0.2-0.1,0.4-0.2,0.6-0.3h0.1h0.1h0.1
		c0.1,0,0.2-0.1,0.3-0.1h0.1h0.1h0.1c0.2,0,0.3,0,0.5,0c0.5,0,0.9,0.1,1.4,0.2c0.1,0,0.1,0,0.2,0.1h0.1c0,0,0,0,0.1,0
		s0.1,0.1,0.2,0.1s0.2,0.1,0.3,0.1c0.2,0.1,0.3,0.2,0.5,0.3s0.4,0.3,0.6,0.4c0.4,0.3,0.8,0.5,1.2,0.8c0.4,0.2,0.8,0.5,1.3,0.7
		c0.2,0.1,0.4,0.2,0.7,0.3c0.2,0.1,0.3,0.1,0.5,0.2c0.2,0.1,0.3,0.1,0.5,0.2c0.8,0.3,1.7,0.5,2.5,0.7c1.1,0.2,2.3,0.3,3.5,0.3
		c10.1,0,18.2-8.2,18.2-18.2c0-0.6,0-1.2-0.1-1.8c-0.2-2-0.7-3.9-1.5-5.6C291,186.8,285.8,190.8,279.6,193.9z"/>
	<path class="st1" d="M316,145c-3.8-0.2-7.1,2.8-7.2,6.7c0,0.2-0.4,7.3-4.3,16.1c-0.9,2.1-2,4.2-3.1,6.1c0.1,0.1,0.1,0.2,0.2,0.2
		c3,4.5,4.7,9.8,4.7,15.3c0,0.5,0,1,0,1.5c15.5-17.4,16.5-37.5,16.6-38.6C322.9,148.4,319.9,145.2,316,145z"/>
</g>
</svg>
